<svg height="512pt" viewBox="0 0 512 512" width="512pt" xmlns="http://www.w3.org/2000/svg" xmlns:xlink="http://www.w3.org/1999/xlink"><linearGradient id="a" gradientUnits="userSpaceOnUse" x1="0" x2="512" y1="256" y2="256"><stop offset="0" stop-color="#00f38d"/><stop offset="1" stop-color="#009eff"/></linearGradient><path d="m512 256c0 141.386719-114.613281 256-256 256s-256-114.613281-256-256 114.613281-256 256-256 256 114.613281 256 256zm0 0" fill="url(#a)"/><g fill="#fff"><path d="m424.082031 302.300781-38.394531-86.96875 37.917969-78.84375-27.035157-13-37.148437 77.25h-206.785156l-36.523438-77.167969-27.117187 12.835938 37.335937 78.882812-38.414062 87.011719h39.609375v63.011719c0 22.492188 18.296875 40.789062 40.789062 40.789062h175.363282c22.492187 0 40.789062-18.296874 40.789062-40.789062v-63.011719zm-290.125-30 18.347657-41.5625h207.390624l18.351563 41.5625zm220.515625 93.011719c0 5.949219-4.839844 10.789062-10.789062 10.789062h-175.367188c-5.949218 0-10.789062-4.839843-10.789062-10.789062v-63.011719h196.941406v63.011719zm0 0"/><path d="m315.855469 127.058594-21.210938-21.214844-23.644531 23.640625v-55.585937h-30v55.085937l-23.140625-23.140625-21.214844 21.214844 59.605469 59.605468zm0 0"/></g></svg>