<svg height="512pt" viewBox="0 0 512 512" width="512pt" xmlns="http://www.w3.org/2000/svg" xmlns:xlink="http://www.w3.org/1999/xlink"><linearGradient id="a" gradientUnits="userSpaceOnUse" x1="0" x2="512" y1="256" y2="256"><stop offset="0" stop-color="#00f38d"/><stop offset="1" stop-color="#009eff"/></linearGradient><path d="m512 256c0 141.386719-114.613281 256-256 256s-256-114.613281-256-256 114.613281-256 256-256 256 114.613281 256 256zm0 0" fill="url(#a)"/><g fill="#fff"><path d="m230.210938 129.636719h25.789062v25.789062h-25.789062zm0 0"/><path d="m230.210938 281.144531h25.789062v36.75h-25.789062zm0 0"/><path d="m281.789062 421.046875h25.789063v-25.785156h-25.789063v-25.789063h-25.789062v51.574219zm0 0"/><path d="m281.789062 229.566406h77.367188v25.789063h-77.367188zm0 0"/><path d="m359.15625 255.355469h36.101562v25.789062h-36.101562zm0 0"/><path d="m359.15625 317.894531v25.789063h61.890625v-62.539063h-25.785156v36.75zm0 0"/><path d="m256 90.953125h25.789062v38.683594h-25.789062zm0 0"/><path d="m256 207h25.789062v-51.574219h-25.789062v25.789063h-25.789062v74.140625h25.789062zm0 0"/><path d="m129.636719 229.566406h-38.683594v51.578125h25.789063v-25.789062h38.683593v-25.789063zm0 0"/><path d="m256 255.355469h25.789062v25.789062h-25.789062zm0 0"/><path d="m333.367188 281.144531h25.789062v25.789063h-25.789062zm0 0"/><path d="m395.261719 229.566406h25.785156v25.789063h-25.785156zm0 0"/><path d="m307.578125 281.144531h-25.789063v36.75h-25.789062v25.789063h51.578125zm0 0"/><path d="m230.210938 343.683594h25.789062v25.789062h-25.789062zm0 0"/><path d="m307.578125 343.683594v25.789062h51.578125v-25.789062zm0 0"/><path d="m359.15625 369.472656h25.789062v25.789063h-25.789062zm0 0"/><path d="m384.945312 395.261719h36.101563v25.789062h-36.101563zm0 0"/><path d="m333.367188 395.261719h25.789062v25.789062h-25.789062zm0 0"/><path d="m207 255.355469v-25.789063h-25.789062v25.789063h-25.785157v25.789062h74.785157v-25.789062zm0 0"/><path d="m209.105469 88.847656h-120.257813v120.257813h120.261719v-120.257813zm-30 90.257813h-60.261719v-60.257813h60.261719zm0 0"/><path d="m136.082031 136.082031h25.789063v25.789063h-25.789063zm0 0"/><path d="m302.894531 88.847656v120.257813h120.261719v-120.257813zm90.257813 90.257813h-60.257813v-60.257813h60.257813zm0 0"/><path d="m350.128906 136.082031h25.789063v25.789063h-25.789063zm0 0"/><path d="m88.847656 423.152344h120.261719v-120.257813h-120.261719zm30-90.257813h60.261719v60.257813h-60.261719zm0 0"/><path d="m136.082031 350.128906h25.789063v25.789063h-25.789063zm0 0"/></g></svg>