<svg height="512pt" viewBox="0 0 512 512" width="512pt" xmlns="http://www.w3.org/2000/svg" xmlns:xlink="http://www.w3.org/1999/xlink"><linearGradient id="a" gradientUnits="userSpaceOnUse" x1="0" x2="512" y1="256" y2="256"><stop offset="0" stop-color="#00f38d"/><stop offset="1" stop-color="#009eff"/></linearGradient><path d="m512 256c0 141.386719-114.613281 256-256 256s-256-114.613281-256-256 114.613281-256 256-256 256 114.613281 256 256zm0 0" fill="url(#a)"/><g fill="#fff"><path d="m200.179688 146.871094h111.878906v30h-111.878906zm0 0"/><path d="m363.753906 296.972656-21.214844 21.210938 22.75 22.746094h-106.269531v30h107.558594l-24.039063 24.039062 21.214844 21.210938 59.605469-59.605469zm0 0"/><path d="m308.660156 393.152344h-179.230468c-5.949219 0-10.789063-4.839844-10.789063-10.789063v-252.726562c0-5.949219 4.839844-10.789063 10.789063-10.789063h252.730468c5.949219 0 10.789063 4.839844 10.789063 10.789063v161.402343l30 28.789063v-190.195313c0-22.488281-18.296875-40.785156-40.789063-40.785156h-252.730468c-22.492188 0-40.789063 18.296875-40.789063 40.785156v252.730469c0 22.492188 18.296875 40.789063 40.789063 40.789063h205.019531zm0 0"/></g></svg>